<mxfile host="app.diagrams.net" agent="Mozilla/5.0 (Windows NT 10.0; Win64; x64) AppleWebKit/537.36 (KHTML, like Gecko) Chrome/135.0.0.0 Safari/537.36" scale="1" border="0" version="26.2.12">
  <diagram name="Page-1" id="ARi850NSCV5grKS-sklV">
    <mxGraphModel dx="2938" dy="1054" grid="1" gridSize="10" guides="1" tooltips="1" connect="1" arrows="1" fold="1" page="1" pageScale="1" pageWidth="850" pageHeight="1100" math="0" shadow="0">
      <root>
        <mxCell id="0" />
        <mxCell id="1" parent="0" />
        <mxCell id="htFci9wHkrf4xHVhhPL5-4" value="&lt;font style=&quot;font-size: 19px;&quot;&gt;User&lt;/font&gt;" style="shape=umlActor;verticalLabelPosition=bottom;verticalAlign=top;html=1;outlineConnect=0;" parent="1" vertex="1">
          <mxGeometry x="-630" y="450" width="50" height="106" as="geometry" />
        </mxCell>
        <mxCell id="htFci9wHkrf4xHVhhPL5-5" value="" style="rounded=0;whiteSpace=wrap;html=1;fillColor=none;" parent="1" vertex="1">
          <mxGeometry x="-440" y="40" width="780" height="1010" as="geometry" />
        </mxCell>
        <mxCell id="htFci9wHkrf4xHVhhPL5-6" value="" style="ellipse;whiteSpace=wrap;html=1;fillColor=none;" parent="1" vertex="1">
          <mxGeometry x="-310" y="140" width="200" height="60" as="geometry" />
        </mxCell>
        <mxCell id="htFci9wHkrf4xHVhhPL5-7" value="Expense Tracker System" style="text;html=1;align=center;verticalAlign=middle;whiteSpace=wrap;rounded=0;fontSize=36;" parent="1" vertex="1">
          <mxGeometry x="-285" y="60" width="510" height="30" as="geometry" />
        </mxCell>
        <mxCell id="htFci9wHkrf4xHVhhPL5-9" value="&lt;font style=&quot;font-size: 20px;&quot;&gt;Add Expense&lt;/font&gt;" style="text;html=1;align=center;verticalAlign=middle;whiteSpace=wrap;rounded=0;fontSize=36;" parent="1" vertex="1">
          <mxGeometry x="-280" y="150" width="150" height="30" as="geometry" />
        </mxCell>
        <mxCell id="htFci9wHkrf4xHVhhPL5-11" value="" style="ellipse;whiteSpace=wrap;html=1;fillColor=none;" parent="1" vertex="1">
          <mxGeometry x="-300" y="330" width="200" height="60" as="geometry" />
        </mxCell>
        <mxCell id="htFci9wHkrf4xHVhhPL5-12" value="&lt;font style=&quot;font-size: 20px;&quot;&gt;Edit Expense&lt;/font&gt;" style="text;html=1;align=center;verticalAlign=middle;whiteSpace=wrap;rounded=0;fontSize=36;" parent="1" vertex="1">
          <mxGeometry x="-270" y="340" width="150" height="30" as="geometry" />
        </mxCell>
        <mxCell id="htFci9wHkrf4xHVhhPL5-13" value="" style="ellipse;whiteSpace=wrap;html=1;fillColor=none;" parent="1" vertex="1">
          <mxGeometry x="-300" y="440" width="200" height="60" as="geometry" />
        </mxCell>
        <mxCell id="htFci9wHkrf4xHVhhPL5-14" value="&lt;font style=&quot;font-size: 20px;&quot;&gt;View Expense&lt;/font&gt;" style="text;html=1;align=center;verticalAlign=middle;whiteSpace=wrap;rounded=0;fontSize=36;" parent="1" vertex="1">
          <mxGeometry x="-270" y="450" width="150" height="30" as="geometry" />
        </mxCell>
        <mxCell id="htFci9wHkrf4xHVhhPL5-18" value="" style="ellipse;whiteSpace=wrap;html=1;fillColor=none;" parent="1" vertex="1">
          <mxGeometry x="-302" y="550" width="200" height="60" as="geometry" />
        </mxCell>
        <mxCell id="htFci9wHkrf4xHVhhPL5-19" value="&lt;font style=&quot;font-size: 20px;&quot;&gt;Set Budget&lt;/font&gt;" style="text;html=1;align=center;verticalAlign=middle;whiteSpace=wrap;rounded=0;fontSize=36;" parent="1" vertex="1">
          <mxGeometry x="-272" y="560" width="150" height="30" as="geometry" />
        </mxCell>
        <mxCell id="htFci9wHkrf4xHVhhPL5-20" value="" style="ellipse;whiteSpace=wrap;html=1;fillColor=none;" parent="1" vertex="1">
          <mxGeometry x="-297" y="650" width="200" height="60" as="geometry" />
        </mxCell>
        <mxCell id="htFci9wHkrf4xHVhhPL5-21" value="&lt;font style=&quot;font-size: 20px;&quot;&gt;Search&amp;nbsp;&lt;span style=&quot;color: rgba(0, 0, 0, 0); font-family: monospace; font-size: 0px; text-align: start; text-wrap-mode: nowrap;&quot;&gt;%3CmxGraphModel%3E%3Croot%3E%3CmxCell%20id%3D%220%22%2F%3E%3CmxCell%20id%3D%221%22%20parent%3D%220%22%2F%3E%3CmxCell%20id%3D%222%22%20value%3D%22%22%20style%3D%22ellipse%3BwhiteSpace%3Dwrap%3Bhtml%3D1%3BfillColor%3Dnone%3B%22%20vertex%3D%221%22%20parent%3D%221%22%3E%3CmxGeometry%20x%3D%22-300%22%20y%3D%22440%22%20width%3D%22200%22%20height%3D%2260%22%20as%3D%22geometry%22%2F%3E%3C%2FmxCell%3E%3CmxCell%20id%3D%223%22%20value%3D%22%26lt%3Bfont%20style%3D%26quot%3Bfont-size%3A%2020px%3B%26quot%3B%26gt%3BView%20Expense%26lt%3B%2Ffont%26gt%3B%22%20style%3D%22text%3Bhtml%3D1%3Balign%3Dcenter%3BverticalAlign%3Dmiddle%3BwhiteSpace%3Dwrap%3Brounded%3D0%3BfontSize%3D36%3B%22%20vertex%3D%221%22%20parent%3D%221%22%3E%3CmxGeometry%20x%3D%22-270%22%20y%3D%22450%22%20width%3D%22150%22%20height%3D%2230%22%20as%3D%22geometry%22%2F%3E%3C%2FmxCell%3E%3C%2Froot%3E%3C%2FmxGraphModel%3E&lt;/span&gt;Expense&lt;/font&gt;" style="text;html=1;align=center;verticalAlign=middle;whiteSpace=wrap;rounded=0;fontSize=36;" parent="1" vertex="1">
          <mxGeometry x="-267" y="660" width="150" height="30" as="geometry" />
        </mxCell>
        <mxCell id="htFci9wHkrf4xHVhhPL5-22" value="" style="ellipse;whiteSpace=wrap;html=1;fillColor=none;" parent="1" vertex="1">
          <mxGeometry x="-295" y="760" width="200" height="60" as="geometry" />
        </mxCell>
        <mxCell id="htFci9wHkrf4xHVhhPL5-23" value="&lt;font style=&quot;font-size: 20px;&quot;&gt;Add Category&lt;/font&gt;" style="text;html=1;align=center;verticalAlign=middle;whiteSpace=wrap;rounded=0;fontSize=36;" parent="1" vertex="1">
          <mxGeometry x="-265" y="770" width="150" height="30" as="geometry" />
        </mxCell>
        <mxCell id="htFci9wHkrf4xHVhhPL5-24" value="" style="ellipse;whiteSpace=wrap;html=1;fillColor=none;" parent="1" vertex="1">
          <mxGeometry x="-313" y="870" width="242" height="110" as="geometry" />
        </mxCell>
        <mxCell id="htFci9wHkrf4xHVhhPL5-25" value="&lt;font style=&quot;font-size: 20px;&quot;&gt;Toggle Dark/&lt;/font&gt;&lt;div&gt;&lt;font style=&quot;font-size: 20px;&quot;&gt;Light Mode&lt;/font&gt;&lt;/div&gt;" style="text;html=1;align=center;verticalAlign=middle;whiteSpace=wrap;rounded=0;fontSize=36;" parent="1" vertex="1">
          <mxGeometry x="-274.5" y="910" width="165" height="30" as="geometry" />
        </mxCell>
        <mxCell id="htFci9wHkrf4xHVhhPL5-27" value="" style="ellipse;whiteSpace=wrap;html=1;fillColor=none;spacingBottom=-6;spacingTop=-7;spacing=2;" parent="1" vertex="1">
          <mxGeometry x="80" y="470" width="220" height="80" as="geometry" />
        </mxCell>
        <mxCell id="htFci9wHkrf4xHVhhPL5-28" value="&lt;font style=&quot;font-size: 20px;&quot;&gt;View Spending Charts&lt;/font&gt;" style="text;html=1;align=center;verticalAlign=middle;whiteSpace=wrap;rounded=0;fontSize=36;" parent="1" vertex="1">
          <mxGeometry x="120" y="500" width="150" height="20" as="geometry" />
        </mxCell>
        <mxCell id="htFci9wHkrf4xHVhhPL5-33" value="" style="curved=1;endArrow=classic;html=1;rounded=0;entryX=0;entryY=0.5;entryDx=0;entryDy=0;" parent="1" target="htFci9wHkrf4xHVhhPL5-6" edge="1">
          <mxGeometry width="50" height="50" relative="1" as="geometry">
            <mxPoint x="-570" y="470" as="sourcePoint" />
            <mxPoint x="-500" y="360" as="targetPoint" />
            <Array as="points">
              <mxPoint x="-500" y="410" />
              <mxPoint x="-450" y="280" />
            </Array>
          </mxGeometry>
        </mxCell>
        <mxCell id="htFci9wHkrf4xHVhhPL5-34" value="" style="curved=1;endArrow=classic;html=1;rounded=0;entryX=0;entryY=0.5;entryDx=0;entryDy=0;" parent="1" target="htFci9wHkrf4xHVhhPL5-11" edge="1">
          <mxGeometry width="50" height="50" relative="1" as="geometry">
            <mxPoint x="-550" y="460" as="sourcePoint" />
            <mxPoint x="-290" y="250" as="targetPoint" />
            <Array as="points">
              <mxPoint x="-490" y="420" />
              <mxPoint x="-420" y="360" />
            </Array>
          </mxGeometry>
        </mxCell>
        <mxCell id="htFci9wHkrf4xHVhhPL5-35" value="" style="curved=1;endArrow=classic;html=1;rounded=0;entryX=0.008;entryY=0.654;entryDx=0;entryDy=0;entryPerimeter=0;" parent="1" target="htFci9wHkrf4xHVhhPL5-13" edge="1">
          <mxGeometry width="50" height="50" relative="1" as="geometry">
            <mxPoint x="-560" y="490" as="sourcePoint" />
            <mxPoint x="-290" y="370" as="targetPoint" />
            <Array as="points">
              <mxPoint x="-480" y="430" />
            </Array>
          </mxGeometry>
        </mxCell>
        <mxCell id="htFci9wHkrf4xHVhhPL5-36" value="" style="curved=1;endArrow=classic;html=1;rounded=0;entryX=0;entryY=0.5;entryDx=0;entryDy=0;" parent="1" target="htFci9wHkrf4xHVhhPL5-18" edge="1">
          <mxGeometry width="50" height="50" relative="1" as="geometry">
            <mxPoint x="-560" y="490" as="sourcePoint" />
            <mxPoint x="-280" y="380" as="targetPoint" />
            <Array as="points">
              <mxPoint x="-470" y="440" />
              <mxPoint x="-410" y="570" />
            </Array>
          </mxGeometry>
        </mxCell>
        <mxCell id="htFci9wHkrf4xHVhhPL5-37" value="" style="curved=1;endArrow=classic;html=1;rounded=0;entryX=0;entryY=0.5;entryDx=0;entryDy=0;" parent="1" target="htFci9wHkrf4xHVhhPL5-20" edge="1">
          <mxGeometry width="50" height="50" relative="1" as="geometry">
            <mxPoint x="-550" y="490" as="sourcePoint" />
            <mxPoint x="-292" y="590" as="targetPoint" />
            <Array as="points">
              <mxPoint x="-460" y="450" />
              <mxPoint x="-480" y="690" />
            </Array>
          </mxGeometry>
        </mxCell>
        <mxCell id="htFci9wHkrf4xHVhhPL5-38" value="" style="curved=1;endArrow=classic;html=1;rounded=0;entryX=0;entryY=0.5;entryDx=0;entryDy=0;" parent="1" target="htFci9wHkrf4xHVhhPL5-22" edge="1">
          <mxGeometry width="50" height="50" relative="1" as="geometry">
            <mxPoint x="-560" y="490" as="sourcePoint" />
            <mxPoint x="-282" y="600" as="targetPoint" />
            <Array as="points">
              <mxPoint x="-450" y="460" />
              <mxPoint x="-530" y="640" />
            </Array>
          </mxGeometry>
        </mxCell>
        <mxCell id="htFci9wHkrf4xHVhhPL5-39" value="" style="curved=1;endArrow=classic;html=1;rounded=0;entryX=0;entryY=0.5;entryDx=0;entryDy=0;" parent="1" edge="1">
          <mxGeometry width="50" height="50" relative="1" as="geometry">
            <mxPoint x="-550" y="500" as="sourcePoint" />
            <mxPoint x="-312.9999999999993" y="915" as="targetPoint" />
            <Array as="points">
              <mxPoint x="-510" y="550" />
              <mxPoint x="-500" y="690" />
              <mxPoint x="-370" y="750" />
            </Array>
          </mxGeometry>
        </mxCell>
        <mxCell id="htFci9wHkrf4xHVhhPL5-40" style="edgeStyle=orthogonalEdgeStyle;rounded=0;orthogonalLoop=1;jettySize=auto;html=1;exitX=0;exitY=0;exitDx=0;exitDy=0;entryX=0.99;entryY=0.623;entryDx=0;entryDy=0;entryPerimeter=0;dashed=1;dashPattern=8 8;" parent="1" source="htFci9wHkrf4xHVhhPL5-27" target="htFci9wHkrf4xHVhhPL5-13" edge="1">
          <mxGeometry relative="1" as="geometry">
            <Array as="points">
              <mxPoint x="112" y="477" />
              <mxPoint x="-10" y="477" />
            </Array>
          </mxGeometry>
        </mxCell>
        <mxCell id="htFci9wHkrf4xHVhhPL5-41" value="&amp;lt;&amp;lt;extend&amp;gt;&amp;gt;" style="text;html=1;align=center;verticalAlign=middle;whiteSpace=wrap;rounded=0;fontSize=19;" parent="1" vertex="1">
          <mxGeometry x="-60" y="440" width="60" height="30" as="geometry" />
        </mxCell>
        <mxCell id="htFci9wHkrf4xHVhhPL5-45" style="edgeStyle=orthogonalEdgeStyle;rounded=0;orthogonalLoop=1;jettySize=auto;html=1;exitX=0;exitY=0;exitDx=0;exitDy=0;entryX=1;entryY=1;entryDx=0;entryDy=0;dashed=1;dashPattern=8 8;" parent="1" source="htFci9wHkrf4xHVhhPL5-43" target="htFci9wHkrf4xHVhhPL5-13" edge="1">
          <mxGeometry relative="1" as="geometry">
            <Array as="points">
              <mxPoint x="50" y="649" />
              <mxPoint x="50" y="491" />
            </Array>
          </mxGeometry>
        </mxCell>
        <mxCell id="htFci9wHkrf4xHVhhPL5-43" value="" style="ellipse;whiteSpace=wrap;html=1;fillColor=none;" parent="1" vertex="1">
          <mxGeometry x="90" y="640" width="200" height="60" as="geometry" />
        </mxCell>
        <mxCell id="htFci9wHkrf4xHVhhPL5-44" value="&lt;span style=&quot;font-size: 20px;&quot;&gt;Export Report&lt;/span&gt;" style="text;html=1;align=center;verticalAlign=middle;whiteSpace=wrap;rounded=0;fontSize=36;" parent="1" vertex="1">
          <mxGeometry x="120" y="650" width="150" height="30" as="geometry" />
        </mxCell>
        <mxCell id="htFci9wHkrf4xHVhhPL5-46" value="&amp;lt;&amp;lt;extend&amp;gt;&amp;gt;" style="text;html=1;align=center;verticalAlign=middle;whiteSpace=wrap;rounded=0;fontSize=18;" parent="1" vertex="1">
          <mxGeometry x="-10" y="460" height="90" as="geometry" />
        </mxCell>
        <mxCell id="htFci9wHkrf4xHVhhPL5-49" value="" style="ellipse;whiteSpace=wrap;html=1;fillColor=none;" parent="1" vertex="1">
          <mxGeometry x="-301" y="232" width="200" height="60" as="geometry" />
        </mxCell>
        <mxCell id="htFci9wHkrf4xHVhhPL5-50" value="&lt;font style=&quot;font-size: 20px;&quot;&gt;Delete Expense&lt;/font&gt;" style="text;html=1;align=center;verticalAlign=middle;whiteSpace=wrap;rounded=0;fontSize=36;" parent="1" vertex="1">
          <mxGeometry x="-271" y="242" width="150" height="30" as="geometry" />
        </mxCell>
        <mxCell id="htFci9wHkrf4xHVhhPL5-51" value="" style="curved=1;endArrow=classic;html=1;rounded=0;entryX=0;entryY=0.5;entryDx=0;entryDy=0;" parent="1" target="htFci9wHkrf4xHVhhPL5-49" edge="1">
          <mxGeometry width="50" height="50" relative="1" as="geometry">
            <mxPoint x="-560" y="460" as="sourcePoint" />
            <mxPoint x="-300" y="180" as="targetPoint" />
            <Array as="points">
              <mxPoint x="-490" y="420" />
              <mxPoint x="-440" y="290" />
            </Array>
          </mxGeometry>
        </mxCell>
        <mxCell id="htFci9wHkrf4xHVhhPL5-55" style="edgeStyle=orthogonalEdgeStyle;rounded=0;orthogonalLoop=1;jettySize=auto;html=1;exitX=0;exitY=0.5;exitDx=0;exitDy=0;entryX=1;entryY=0.5;entryDx=0;entryDy=0;dashed=1;dashPattern=8 8;" parent="1" source="htFci9wHkrf4xHVhhPL5-53" target="htFci9wHkrf4xHVhhPL5-6" edge="1">
          <mxGeometry relative="1" as="geometry" />
        </mxCell>
        <mxCell id="htFci9wHkrf4xHVhhPL5-53" value="" style="ellipse;whiteSpace=wrap;html=1;fillColor=none;" parent="1" vertex="1">
          <mxGeometry x="90" y="140" width="200" height="60" as="geometry" />
        </mxCell>
        <mxCell id="htFci9wHkrf4xHVhhPL5-54" value="&lt;font style=&quot;font-size: 20px;&quot;&gt;Validate Input&lt;/font&gt;" style="text;html=1;align=center;verticalAlign=middle;whiteSpace=wrap;rounded=0;fontSize=36;" parent="1" vertex="1">
          <mxGeometry x="120" y="150" width="150" height="30" as="geometry" />
        </mxCell>
        <mxCell id="htFci9wHkrf4xHVhhPL5-56" value="&amp;lt;&amp;lt;include&amp;gt;&amp;gt;" style="text;html=1;align=center;verticalAlign=middle;whiteSpace=wrap;rounded=0;fontSize=19;" parent="1" vertex="1">
          <mxGeometry x="-41" y="140" width="60" height="30" as="geometry" />
        </mxCell>
        <mxCell id="htFci9wHkrf4xHVhhPL5-63" style="edgeStyle=orthogonalEdgeStyle;rounded=0;orthogonalLoop=1;jettySize=auto;html=1;exitX=0;exitY=0.5;exitDx=0;exitDy=0;entryX=1;entryY=1;entryDx=0;entryDy=0;dashed=1;dashPattern=8 8;" parent="1" source="htFci9wHkrf4xHVhhPL5-61" target="htFci9wHkrf4xHVhhPL5-6" edge="1">
          <mxGeometry relative="1" as="geometry">
            <Array as="points">
              <mxPoint x="85" y="210" />
              <mxPoint x="-139" y="210" />
            </Array>
          </mxGeometry>
        </mxCell>
        <mxCell id="htFci9wHkrf4xHVhhPL5-64" style="edgeStyle=orthogonalEdgeStyle;rounded=0;orthogonalLoop=1;jettySize=auto;html=1;exitX=0;exitY=0.5;exitDx=0;exitDy=0;entryX=1;entryY=0.5;entryDx=0;entryDy=0;dashed=1;dashPattern=8 8;" parent="1" source="htFci9wHkrf4xHVhhPL5-61" target="htFci9wHkrf4xHVhhPL5-49" edge="1">
          <mxGeometry relative="1" as="geometry">
            <Array as="points">
              <mxPoint x="85" y="262" />
            </Array>
          </mxGeometry>
        </mxCell>
        <mxCell id="htFci9wHkrf4xHVhhPL5-65" style="edgeStyle=orthogonalEdgeStyle;rounded=0;orthogonalLoop=1;jettySize=auto;html=1;exitX=0;exitY=0.5;exitDx=0;exitDy=0;entryX=1;entryY=0.5;entryDx=0;entryDy=0;dashed=1;dashPattern=8 8;" parent="1" source="htFci9wHkrf4xHVhhPL5-61" target="htFci9wHkrf4xHVhhPL5-11" edge="1">
          <mxGeometry relative="1" as="geometry">
            <Array as="points">
              <mxPoint x="85" y="360" />
            </Array>
          </mxGeometry>
        </mxCell>
        <mxCell id="htFci9wHkrf4xHVhhPL5-61" value="" style="ellipse;whiteSpace=wrap;html=1;fillColor=none;" parent="1" vertex="1">
          <mxGeometry x="85" y="300" width="200" height="60" as="geometry" />
        </mxCell>
        <mxCell id="htFci9wHkrf4xHVhhPL5-62" value="&lt;font style=&quot;font-size: 15px;&quot;&gt;Save to Local Storage&lt;/font&gt;" style="text;html=1;align=center;verticalAlign=middle;whiteSpace=wrap;rounded=0;fontSize=36;" parent="1" vertex="1">
          <mxGeometry x="115" y="310" width="150" height="30" as="geometry" />
        </mxCell>
        <mxCell id="htFci9wHkrf4xHVhhPL5-66" value="&amp;lt;&amp;lt;include&amp;gt;&amp;gt;" style="text;html=1;align=center;verticalAlign=middle;whiteSpace=wrap;rounded=0;fontSize=19;" parent="1" vertex="1">
          <mxGeometry x="-41" y="180" width="60" height="30" as="geometry" />
        </mxCell>
        <mxCell id="htFci9wHkrf4xHVhhPL5-67" value="&amp;lt;&amp;lt;include&amp;gt;&amp;gt;" style="text;html=1;align=center;verticalAlign=middle;whiteSpace=wrap;rounded=0;fontSize=19;" parent="1" vertex="1">
          <mxGeometry x="-41" y="230" width="60" height="30" as="geometry" />
        </mxCell>
        <mxCell id="htFci9wHkrf4xHVhhPL5-68" value="&amp;lt;&amp;lt;include&amp;gt;&amp;gt;" style="text;html=1;align=center;verticalAlign=middle;whiteSpace=wrap;rounded=0;fontSize=19;" parent="1" vertex="1">
          <mxGeometry x="-41" y="331" width="60" height="30" as="geometry" />
        </mxCell>
        <mxCell id="htFci9wHkrf4xHVhhPL5-72" style="edgeStyle=orthogonalEdgeStyle;rounded=0;orthogonalLoop=1;jettySize=auto;html=1;exitX=0;exitY=0.5;exitDx=0;exitDy=0;entryX=1;entryY=0.5;entryDx=0;entryDy=0;dashed=1;dashPattern=8 8;" parent="1" source="htFci9wHkrf4xHVhhPL5-69" target="htFci9wHkrf4xHVhhPL5-18" edge="1">
          <mxGeometry relative="1" as="geometry">
            <Array as="points">
              <mxPoint x="30" y="790" />
              <mxPoint x="30" y="580" />
            </Array>
          </mxGeometry>
        </mxCell>
        <mxCell id="htFci9wHkrf4xHVhhPL5-69" value="" style="ellipse;whiteSpace=wrap;html=1;fillColor=none;" parent="1" vertex="1">
          <mxGeometry x="90" y="760" width="200" height="60" as="geometry" />
        </mxCell>
        <mxCell id="htFci9wHkrf4xHVhhPL5-70" value="&lt;span style=&quot;font-size: 20px;&quot;&gt;View Progress&lt;/span&gt;" style="text;html=1;align=center;verticalAlign=middle;whiteSpace=wrap;rounded=0;fontSize=36;" parent="1" vertex="1">
          <mxGeometry x="120" y="770" width="150" height="30" as="geometry" />
        </mxCell>
        <mxCell id="htFci9wHkrf4xHVhhPL5-73" value="&amp;lt;&amp;lt;extend&amp;gt;&amp;gt;" style="text;html=1;align=center;verticalAlign=middle;whiteSpace=wrap;rounded=0;fontSize=18;" parent="1" vertex="1">
          <mxGeometry x="-30" y="550" height="90" as="geometry" />
        </mxCell>
        <mxCell id="htFci9wHkrf4xHVhhPL5-76" style="edgeStyle=orthogonalEdgeStyle;rounded=0;orthogonalLoop=1;jettySize=auto;html=1;exitX=0;exitY=0.5;exitDx=0;exitDy=0;entryX=1;entryY=0.5;entryDx=0;entryDy=0;" parent="1" source="htFci9wHkrf4xHVhhPL5-74" target="htFci9wHkrf4xHVhhPL5-53" edge="1">
          <mxGeometry relative="1" as="geometry" />
        </mxCell>
        <mxCell id="htFci9wHkrf4xHVhhPL5-77" style="edgeStyle=orthogonalEdgeStyle;rounded=0;orthogonalLoop=1;jettySize=auto;html=1;exitX=0;exitY=0.5;exitDx=0;exitDy=0;entryX=1;entryY=0.5;entryDx=0;entryDy=0;" parent="1" source="htFci9wHkrf4xHVhhPL5-74" target="htFci9wHkrf4xHVhhPL5-61" edge="1">
          <mxGeometry relative="1" as="geometry" />
        </mxCell>
        <mxCell id="htFci9wHkrf4xHVhhPL5-78" style="edgeStyle=orthogonalEdgeStyle;rounded=0;orthogonalLoop=1;jettySize=auto;html=1;exitX=0;exitY=0.5;exitDx=0;exitDy=0;entryX=1;entryY=0.5;entryDx=0;entryDy=0;" parent="1" source="htFci9wHkrf4xHVhhPL5-74" target="htFci9wHkrf4xHVhhPL5-27" edge="1">
          <mxGeometry relative="1" as="geometry">
            <Array as="points">
              <mxPoint x="450" y="220" />
              <mxPoint x="450" y="510" />
            </Array>
          </mxGeometry>
        </mxCell>
        <mxCell id="htFci9wHkrf4xHVhhPL5-79" style="edgeStyle=orthogonalEdgeStyle;rounded=0;orthogonalLoop=1;jettySize=auto;html=1;exitX=0;exitY=0.5;exitDx=0;exitDy=0;entryX=1;entryY=0.5;entryDx=0;entryDy=0;" parent="1" source="htFci9wHkrf4xHVhhPL5-74" target="htFci9wHkrf4xHVhhPL5-43" edge="1">
          <mxGeometry relative="1" as="geometry">
            <Array as="points">
              <mxPoint x="450" y="220" />
              <mxPoint x="450" y="670" />
            </Array>
          </mxGeometry>
        </mxCell>
        <mxCell id="htFci9wHkrf4xHVhhPL5-80" style="edgeStyle=orthogonalEdgeStyle;rounded=0;orthogonalLoop=1;jettySize=auto;html=1;exitX=0;exitY=0.5;exitDx=0;exitDy=0;entryX=1;entryY=0.5;entryDx=0;entryDy=0;" parent="1" source="htFci9wHkrf4xHVhhPL5-74" target="htFci9wHkrf4xHVhhPL5-69" edge="1">
          <mxGeometry relative="1" as="geometry">
            <Array as="points">
              <mxPoint x="450" y="220" />
              <mxPoint x="450" y="790" />
            </Array>
          </mxGeometry>
        </mxCell>
        <mxCell id="htFci9wHkrf4xHVhhPL5-88" style="edgeStyle=orthogonalEdgeStyle;rounded=0;orthogonalLoop=1;jettySize=auto;html=1;exitX=0;exitY=0.5;exitDx=0;exitDy=0;entryX=1;entryY=0.5;entryDx=0;entryDy=0;" parent="1" source="htFci9wHkrf4xHVhhPL5-74" target="htFci9wHkrf4xHVhhPL5-81" edge="1">
          <mxGeometry relative="1" as="geometry">
            <Array as="points">
              <mxPoint x="450" y="220" />
              <mxPoint x="450" y="890" />
            </Array>
          </mxGeometry>
        </mxCell>
        <mxCell id="htFci9wHkrf4xHVhhPL5-74" value="&amp;lt;&amp;lt;actor&amp;gt;&amp;gt;" style="swimlane;whiteSpace=wrap;html=1;" parent="1" vertex="1">
          <mxGeometry x="480" y="180" width="200" height="80" as="geometry" />
        </mxCell>
        <mxCell id="htFci9wHkrf4xHVhhPL5-75" value="System" style="text;html=1;align=center;verticalAlign=middle;resizable=0;points=[];autosize=1;strokeColor=none;fillColor=none;fontSize=22;" parent="htFci9wHkrf4xHVhhPL5-74" vertex="1">
          <mxGeometry x="50" y="30" width="100" height="40" as="geometry" />
        </mxCell>
        <mxCell id="htFci9wHkrf4xHVhhPL5-83" style="edgeStyle=orthogonalEdgeStyle;rounded=0;orthogonalLoop=1;jettySize=auto;html=1;exitX=0;exitY=0.5;exitDx=0;exitDy=0;dashed=1;dashPattern=8 8;" parent="1" source="htFci9wHkrf4xHVhhPL5-81" edge="1">
          <mxGeometry relative="1" as="geometry">
            <mxPoint x="-100" y="675" as="targetPoint" />
            <Array as="points">
              <mxPoint x="20" y="890" />
              <mxPoint x="20" y="675" />
            </Array>
          </mxGeometry>
        </mxCell>
        <mxCell id="htFci9wHkrf4xHVhhPL5-81" value="" style="ellipse;whiteSpace=wrap;html=1;fillColor=none;" parent="1" vertex="1">
          <mxGeometry x="90" y="860" width="200" height="60" as="geometry" />
        </mxCell>
        <mxCell id="htFci9wHkrf4xHVhhPL5-82" value="&lt;span style=&quot;font-size: 20px;&quot;&gt;Filter Expense&lt;/span&gt;" style="text;html=1;align=center;verticalAlign=middle;whiteSpace=wrap;rounded=0;fontSize=36;" parent="1" vertex="1">
          <mxGeometry x="120" y="870" width="150" height="30" as="geometry" />
        </mxCell>
        <mxCell id="htFci9wHkrf4xHVhhPL5-86" style="edgeStyle=orthogonalEdgeStyle;rounded=0;orthogonalLoop=1;jettySize=auto;html=1;exitX=0;exitY=0.5;exitDx=0;exitDy=0;dashed=1;dashPattern=8 8;endArrow=none;startFill=0;" parent="1" source="htFci9wHkrf4xHVhhPL5-84" edge="1">
          <mxGeometry relative="1" as="geometry">
            <mxPoint x="50" y="360" as="targetPoint" />
            <Array as="points">
              <mxPoint x="50" y="410" />
              <mxPoint x="50" y="373" />
            </Array>
          </mxGeometry>
        </mxCell>
        <mxCell id="htFci9wHkrf4xHVhhPL5-84" value="" style="ellipse;whiteSpace=wrap;html=1;fillColor=none;" parent="1" vertex="1">
          <mxGeometry x="85" y="380" width="200" height="60" as="geometry" />
        </mxCell>
        <mxCell id="htFci9wHkrf4xHVhhPL5-85" value="&lt;font style=&quot;font-size: 14px;&quot;&gt;Save to Cloud Backup&lt;/font&gt;" style="text;html=1;align=center;verticalAlign=middle;whiteSpace=wrap;rounded=0;fontSize=36;" parent="1" vertex="1">
          <mxGeometry x="115" y="390" width="150" height="30" as="geometry" />
        </mxCell>
        <mxCell id="htFci9wHkrf4xHVhhPL5-87" value="&amp;lt;&amp;lt;extend&amp;gt;&amp;gt;" style="text;html=1;align=center;verticalAlign=middle;whiteSpace=wrap;rounded=0;fontSize=19;" parent="1" vertex="1">
          <mxGeometry x="-40" y="381" width="60" height="30" as="geometry" />
        </mxCell>
        <mxCell id="P_mqHYJIOsSZpwRy9rHp-1" style="edgeStyle=orthogonalEdgeStyle;rounded=0;orthogonalLoop=1;jettySize=auto;html=1;exitX=0;exitY=0.5;exitDx=0;exitDy=0;entryX=0.977;entryY=0.773;entryDx=0;entryDy=0;entryPerimeter=0;" edge="1" parent="1" source="htFci9wHkrf4xHVhhPL5-74" target="htFci9wHkrf4xHVhhPL5-84">
          <mxGeometry relative="1" as="geometry">
            <Array as="points">
              <mxPoint x="450" y="220" />
              <mxPoint x="450" y="426" />
            </Array>
          </mxGeometry>
        </mxCell>
        <mxCell id="P_mqHYJIOsSZpwRy9rHp-2" value="&amp;lt;&amp;lt;include&amp;gt;&amp;gt;" style="text;html=1;align=center;verticalAlign=middle;whiteSpace=wrap;rounded=0;fontSize=18;" vertex="1" parent="1">
          <mxGeometry x="-40" y="649" height="90" as="geometry" />
        </mxCell>
      </root>
    </mxGraphModel>
  </diagram>
</mxfile>
